HIERARCHY
ROOT Hips
{
	OFFSET 0.000000 0.000000 0.000000
	CHANNELS 6 Xposition Yposition Zposition Zrotation Yrotation Xrotation 
	JOINT LowerBack
	{
		OFFSET 0.000000 0.000000 0.000000
		CHANNELS 3 Zrotation Yrotation Xrotation
		JOINT Spine
		{
			OFFSET 0.028270 2.035590 -0.193380
			CHANNELS 3 Zrotation Yrotation Xrotation
			JOINT Spine1
			{
				OFFSET 0.056720 2.048850 -0.042750
				CHANNELS 3 Zrotation Yrotation Xrotation
				JOINT Neck
				{
					OFFSET 0.000000 0.000000 0.000000
					CHANNELS 3 Zrotation Yrotation Xrotation
					JOINT Neck1
					{
						OFFSET -0.054170 1.746240 0.172020
						CHANNELS 3 Zrotation Yrotation Xrotation
						JOINT Head
						{
							OFFSET 0.104070 1.761360 -0.123970
							CHANNELS 3 Zrotation Yrotation Xrotation
							End Site
							{
								OFFSET 0.000000 0.000000 0.000000
							}
						}
					}
				}
				JOINT LeftShoulder
				{
					OFFSET 0.000000 0.000000 0.000000
					CHANNELS 3 Zrotation Yrotation Xrotation
					JOINT LeftArm
					{
						OFFSET 3.362410 1.200890 -0.311210
						CHANNELS 3 Zrotation Yrotation Xrotation
						JOINT LeftForeArm
						{
							OFFSET 4.983000 -0.000000 -0.000000
							CHANNELS 3 Zrotation Yrotation Xrotation
							JOINT LeftHand
							{
								OFFSET 3.483560 -0.000000 -0.000000
								CHANNELS 3 Zrotation Yrotation Xrotation
								JOINT LeftFingerBase
								{
									OFFSET 0.000000 0.000000 0.000000
									CHANNELS 3 Zrotation Yrotation Xrotation
									JOINT LeftHandIndex1
									{
										OFFSET 0.715260 -0.000000 -0.000000
										CHANNELS 3 Zrotation Yrotation Xrotation
										End Site
										{
											OFFSET 0.000000 0.000000 0.000000
										}
									}
								}
								JOINT LThumb
								{
									OFFSET 0.000000 0.000000 0.000000
									CHANNELS 3 Zrotation Yrotation Xrotation
									End Site
									{
										OFFSET 0.000000 0.000000 0.000000
									}
								}
							}
						}
					}
				}
				JOINT RightShoulder
				{
					OFFSET 0.000000 0.000000 0.000000
					CHANNELS 3 Zrotation Yrotation Xrotation
					JOINT RightArm
					{
						OFFSET -3.136600 1.374050 -0.404650
						CHANNELS 3 Zrotation Yrotation Xrotation
						JOINT RightForeArm
						{
							OFFSET -5.241900 -0.000000 -0.000000
							CHANNELS 3 Zrotation Yrotation Xrotation
							JOINT RightHand
							{
								OFFSET -3.444170 -0.000000 -0.000000
								CHANNELS 3 Zrotation Yrotation Xrotation
								JOINT RightFingerBase
								{
									OFFSET 0.000000 0.000000 0.000000
									CHANNELS 3 Zrotation Yrotation Xrotation
									JOINT RightHandIndex1
									{
										OFFSET -0.622530 -0.000000 -0.000000
										CHANNELS 3 Zrotation Yrotation Xrotation
										End Site
										{
											OFFSET 0.000000 0.000000 0.000000
										}
									}
								}
								JOINT RThumb
								{
									OFFSET 0.000000 0.000000 0.000000
									CHANNELS 3 Zrotation Yrotation Xrotation
									End Site
									{
										OFFSET 0.000000 0.000000 0.000000
									}
								}
							}
						}
					}
				}
			}
		}
	}
}
}
MOTION
Frames: 17
Frame Time: 0.008333
-18.445642 14.139416 -0.491875 -96.663043 83.757710 -60.688272 -6.835972 1.319602 5.805432 -1.871236 1.763961 -1.570110 -3.290531 1.762027 0.661660 8.294215 -10.535795 -10.159355 -0.146507 0.070658 -1.199756 0.000000 0.000000 0.000000 5.715500 19.649781 3.292637 -64.260350 31.517255 18.342352 -0.108800 -88.730685 0.031274 -15.974631 -1.536044 0.237945 0.228719 0.141308 0.000000 0.000000 0.000000 0.000000 0.000000 0.000000 0.000000 -0.197063 -2.898406 1.181599 51.616393 25.088452 23.148139 178.774506 76.171228 -179.965424 3.642106 5.311946 0.186681 -0.001905 -0.528264 -0.000000 0.000000 0.000000 0.000000 0.000000 0.000000 0.000000 
-18.220803 14.102330 -0.494135 -95.817774 83.637798 -59.919449 -7.110253 1.302492 5.777004 -1.973362 1.745835 -1.593120 -3.457182 1.745670 0.615300 8.452238 -10.325977 -10.131791 -0.238442 0.062988 -1.196542 0.000000 0.000000 0.000000 5.189921 19.545598 3.336646 -64.113488 30.381727 17.702045 -0.149389 -88.155988 0.031642 -15.661382 -1.476968 0.225139 0.216177 0.142683 0.000000 0.000000 0.000000 0.000000 0.000000 0.000000 0.000000 0.221358 -2.648148 1.162229 52.647188 24.837670 23.151926 178.807694 76.710322 -179.964274 3.830895 5.210459 0.193089 -0.006289 -0.525166 -0.000000 0.000000 0.000000 0.000000 0.000000 0.000000 0.000000 
-17.998987 14.069466 -0.496716 -94.837847 83.554612 -58.979646 -7.391529 1.278236 5.747055 -2.078505 1.719850 -1.618994 -3.631597 1.721301 0.556838 8.605735 -10.092273 -10.097114 -0.340043 0.054482 -1.192386 0.000000 0.000000 0.000000 4.622529 19.401508 3.385312 -63.939435 29.110589 17.027942 -0.194274 -87.526384 0.032056 -15.330476 -1.395820 0.209440 0.202799 0.144123 0.000000 0.000000 0.000000 0.000000 0.000000 0.000000 0.000000 0.672308 -2.375436 1.138796 53.774998 24.515126 23.156383 178.853473 77.351466 -179.963683 3.941813 5.097867 0.194805 -0.008875 -0.521667 -0.000000 0.000000 0.000000 0.000000 0.000000 0.000000 0.000000 
-17.780922 14.040876 -0.499724 -93.793121 83.499796 -57.938710 -7.667897 1.249659 5.720346 -2.183353 1.688866 -1.646052 -3.811005 1.691767 0.487311 8.750601 -9.842997 -10.058181 -0.448911 0.045406 -1.188270 0.000000 0.000000 0.000000 4.040144 19.216701 3.439926 -63.751859 27.687966 16.344109 -0.245249 -86.817775 0.032526 -14.990758 -1.294129 0.191346 0.188737 0.145703 0.000000 0.000000 0.000000 0.000000 0.000000 0.000000 0.000000 1.144342 -2.089719 1.110181 54.993512 24.110916 23.146898 178.912435 78.093164 -179.963670 3.973620 4.982037 0.192227 -0.009905 -0.517999 -0.000000 0.000000 0.000000 0.000000 0.000000 0.000000 0.000000 
-17.567117 14.016723 -0.503230 -92.744680 83.466915 -56.862729 -7.928047 1.218370 5.704764 -2.284939 1.654466 -1.673278 -3.993636 1.658668 0.402907 8.881392 -9.580874 -10.012931 -0.563182 0.035883 -1.183658 0.000000 0.000000 0.000000 3.454717 18.974807 3.500086 -63.556357 26.126989 15.657419 -0.302646 -86.027659 0.033048 -14.643283 -1.171330 0.171060 0.174137 0.147490 0.000000 0.000000 0.000000 0.000000 0.000000 0.000000 0.000000 1.624348 -1.794416 1.076733 56.299983 23.613670 23.106506 178.984422 78.934333 -179.964208 3.932200 4.868322 0.186252 -0.009787 -0.514313 -0.000000 0.000000 0.000000 0.000000 0.000000 0.000000 0.000000 
-17.357605 13.997207 -0.506656 -91.519053 83.462119 -55.582434 -8.187684 1.186767 5.700909 -2.387175 1.619168 -1.703653 -4.180294 1.624442 0.292541 8.998008 -9.294642 -9.950644 -0.682983 0.025706 -1.175296 0.000000 0.000000 0.000000 2.866684 18.635151 3.563465 -63.344076 24.493806 14.946863 -0.364331 -85.189635 0.033561 -14.277951 -1.025152 0.148477 0.159206 0.149461 0.000000 0.000000 0.000000 0.000000 0.000000 0.000000 0.000000 2.110233 -1.477024 1.042247 57.695965 23.006285 23.019244 179.068717 79.879335 -179.965249 3.825766 4.754790 0.177279 -0.008905 -0.510641 -0.000000 0.000000 0.000000 0.000000 0.000000 0.000000 0.000000 
-17.153378 13.982283 -0.510671 -90.300862 83.464074 -54.293862 -8.414064 1.156741 5.721579 -2.481739 1.584533 -1.732007 -4.366918 1.590685 0.163103 9.092023 -8.999392 -9.875571 -0.805115 0.015223 -1.164450 0.000000 0.000000 0.000000 2.302645 18.211785 3.630017 -63.138864 22.758665 14.243372 -0.432694 -84.266081 0.034080 -13.900729 -0.856181 0.123995 0.144070 0.151731 0.000000 0.000000 0.000000 0.000000 0.000000 0.000000 0.000000 2.586657 -1.157681 1.004846 59.167676 22.305374 22.865372 179.165246 80.934660 -179.966742 3.665396 4.654623 0.166503 -0.007874 -0.507102 -0.000000 0.000000 0.000000 0.000000 0.000000 0.000000 0.000000 
-16.954077 13.971967 -0.515160 -88.995538 83.468514 -52.911422 -8.609181 1.130136 5.769026 -2.568986 1.552325 -1.758101 -4.552458 1.559113 0.013705 9.162481 -8.693633 -9.783242 -0.928587 0.004431 -1.149586 0.000000 0.000000 0.000000 1.772441 17.696267 3.697406 -62.942828 20.949441 13.547048 -0.506924 -83.265466 0.034554 -13.503768 -0.662417 0.097613 0.128884 0.154303 0.000000 0.000000 0.000000 0.000000 0.000000 0.000000 0.000000 3.051407 -0.837142 0.966240 60.706666 21.520476 22.629041 179.272880 82.110716 -179.968637 3.460471 4.570753 0.154622 -0.007109 -0.503668 -0.000000 0.000000 0.000000 0.000000 0.000000 0.000000 0.000000 
-16.759830 13.966179 -0.520353 -87.592395 83.465660 -51.433979 -8.764904 1.107622 5.846125 -2.646833 1.523016 -1.780932 -4.735569 1.530143 -0.154401 9.207402 -8.378880 -9.670402 -1.052272 -0.006645 -1.129443 0.000000 0.000000 0.000000 1.282398 17.084292 3.763003 -62.760428 19.090372 12.857168 -0.585987 -82.196074 0.034943 -13.084146 -0.443356 0.069629 0.113868 0.157182 0.000000 0.000000 0.000000 0.000000 0.000000 0.000000 0.000000 3.501484 -0.520078 0.927984 62.300701 20.668986 22.296082 179.389650 83.415923 -179.970903 3.217096 4.506436 0.141834 -0.006902 -0.500283 -0.000000 0.000000 0.000000 0.000000 0.000000 0.000000 0.000000 
-16.570596 13.964692 -0.526359 -86.053139 83.447756 -49.831305 -8.877867 1.088931 5.952258 -2.714200 1.496242 -1.799501 -4.914792 1.503371 -0.336853 9.227523 -8.057375 -9.536130 -1.174952 -0.017933 -1.103368 0.000000 0.000000 0.000000 0.840499 16.384093 3.824259 -62.594746 17.197005 12.178014 -0.668681 -81.066143 0.035202 -12.638881 -0.199307 0.040339 0.099206 0.160364 0.000000 0.000000 0.000000 0.000000 0.000000 0.000000 0.000000 3.936836 -0.212099 0.891034 63.934946 19.773946 21.856519 179.512756 84.856791 -179.973542 2.935386 4.464627 0.128438 -0.007336 -0.496891 -0.000000 0.000000 0.000000 0.000000 0.000000 0.000000 0.000000 
-16.386044 13.967154 -0.533383 -84.397739 83.407672 -48.129053 -8.943479 1.071737 6.085681 -2.769427 1.469718 -1.810587 -5.087868 1.476663 -0.520529 9.226717 -7.740149 -9.387249 -1.294613 -0.029153 -1.073005 0.000000 0.000000 0.000000 0.460518 15.639543 3.878971 -62.449551 15.240770 11.538284 -0.755130 -79.866506 0.035306 -12.167653 0.069946 0.010444 0.084915 0.163862 0.000000 0.000000 0.000000 0.000000 0.000000 0.000000 0.000000 4.359965 0.070904 0.853850 65.589915 18.873540 21.310651 179.638648 86.437487 -179.976598 2.608795 4.451469 0.113933 -0.008262 -0.493449 -0.000000 0.000000 0.000000 0.000000 0.000000 0.000000 0.000000 
-16.205763 13.973254 -0.541168 -82.448977 83.347641 -46.151666 -8.980296 1.054283 6.233730 -2.817032 1.441872 -1.819880 -5.256196 1.448099 -0.714289 9.209826 -7.410102 -9.210847 -1.412488 -0.040667 -1.033892 0.000000 0.000000 0.000000 0.135349 14.805485 3.923710 -62.316240 13.326929 10.887623 -0.839359 -78.666734 0.035192 -11.668673 0.357222 -0.019064 0.071483 0.167599 0.000000 0.000000 0.000000 0.000000 0.000000 0.000000 0.000000 4.777000 0.346785 0.822212 67.251884 17.963213 20.653474 179.762365 88.150146 -179.980154 2.222909 4.455684 0.097220 -0.009303 -0.489833 0.000000 0.000000 0.000000 0.000000 0.000000 0.000000 0.000000 
-16.029692 13.982414 -0.550108 -80.419669 83.260837 -44.114138 -8.972165 1.030172 6.397152 -2.852409 1.406478 -1.821040 -5.416932 1.411892 -0.896388 9.182827 -7.090473 -9.023808 -1.525667 -0.051944 -0.990763 0.000000 0.000000 0.000000 -0.119061 13.961982 3.957429 -62.199121 11.376552 10.279084 -0.922957 -77.442453 0.034886 -11.151783 0.662269 -0.047580 0.058766 0.171621 0.000000 0.000000 0.000000 0.000000 0.000000 0.000000 0.000000 5.189696 0.586465 0.792031 68.893674 17.089526 19.902619 179.879395 89.987626 -179.984308 1.760031 4.490421 0.077799 -0.009955 -0.486094 -0.000000 0.000000 0.000000 0.000000 0.000000 0.000000 0.000000 
-15.856992 13.994104 -0.560015 -78.302296 83.150923 -42.006568 -8.927805 0.994594 6.566098 -2.877387 1.359097 -1.815333 -5.570167 1.363662 -1.062633 9.153523 -6.781525 -8.827605 -1.633875 -0.062960 -0.943629 0.000000 0.000000 0.000000 -0.298946 13.121204 3.978416 -62.092842 9.414010 9.706070 -1.003131 -76.229231 0.034389 -10.623417 0.977484 -0.074308 0.046926 0.175925 0.000000 0.000000 0.000000 0.000000 0.000000 0.000000 0.000000 5.603486 0.789109 0.764758 70.494021 16.261235 19.075359 -0.015155 88.068431 0.010829 1.198669 4.553905 0.053973 -0.009623 -0.482205 -0.000000 0.000000 0.000000 0.000000 0.000000 0.000000 0.000000 
-15.687587 14.007804 -0.570814 -76.192525 83.020168 -39.921757 -8.846813 0.942042 6.734518 -2.891644 1.294562 -1.802500 -5.715770 1.298419 -1.206800 9.128615 -6.488491 -8.627026 -1.736427 -0.073598 -0.893631 0.000000 0.000000 0.000000 -0.399988 12.305088 3.985782 -61.993834 7.443085 9.171289 -1.078086 -75.053967 0.033736 -10.095074 1.295398 -0.098148 0.036057 0.180538 0.000000 0.000000 0.000000 0.000000 0.000000 0.000000 0.000000 6.020716 0.948994 0.741057 72.028532 15.485869 18.196741 0.074574 86.041849 0.005180 0.520377 4.648343 0.024444 -0.007761 -0.478161 -0.000000 0.000000 0.000000 0.000000 0.000000 0.000000 0.000000 
-15.520950 14.023005 -0.582425 -74.199795 82.871899 -37.966231 -8.726120 0.868071 6.898111 -2.894366 1.208696 -1.782824 -5.853885 1.212112 -1.325882 9.112998 -6.214604 -8.425132 -1.832909 -0.083788 -0.841490 0.000000 0.000000 0.000000 -0.419547 11.523659 3.979197 -61.898324 5.478752 8.668617 -1.145779 -73.949338 0.032986 -9.581112 1.607742 -0.118796 0.026303 0.185490 0.000000 0.000000 0.000000 0.000000 0.000000 0.000000 0.000000 6.441013 1.063922 0.722405 73.473335 14.759872 17.293839 0.145618 83.960975 -0.001272 -0.286532 4.775754 -0.012288 -0.003963 -0.473946 -0.000000 0.000000 0.000000 0.000000 0.000000 0.000000 0.000000 
-15.356784 14.039351 -0.594669 -72.421781 82.710159 -36.235007 -8.562153 0.769665 7.054554 -2.884594 1.098690 -1.756265 -5.984391 1.102077 -1.417268 9.110401 -5.963821 -8.225566 -1.922717 -0.093435 -0.788231 0.000000 0.000000 0.000000 -0.355010 10.788498 3.958845 -61.803596 3.527454 8.195355 -1.204863 -72.941805 0.032216 -9.096231 1.905286 -0.135855 0.017758 0.190847 0.000000 0.000000 0.000000 0.000000 0.000000 0.000000 0.000000 6.861525 1.132016 0.710037 74.805759 14.075425 16.397558 0.196629 81.855548 -0.008451 -1.222649 4.936720 -0.057119 0.001978 -0.469483 0.000000 0.000000 0.000000 0.000000 0.000000 0.000000 0.000000 
